Coordinates
version=1
nRows=16
nColumns=32
inDegrees=yes

Units are S.I. units (second, meters, Newtons, ...)
If the header above contains a line with 'inDegrees', this indicates whether rotational values are in degrees (yes) or radians (no).

endheader
time	pelvis_tilt	pelvis_list	pelvis_rotation	pelvis_tx	pelvis_ty	pelvis_tz	hip_flexion_r	hip_adduction_r	hip_rotation_r	knee_angle_r	ankle_angle_r	subtalar_angle_r	mtp_angle_r	hip_flexion_l	hip_adduction_l	hip_rotation_l	knee_angle_l	ankle_angle_l	subtalar_angle_l	mtp_angle_l	lumbar_extension	lumbar_bending	lumbar_rotation	arm_flex_r	arm_add_r	arm_rot_r	elbow_flex_r	arm_flex_l	arm_add_l	arm_rot_l	elbow_flex_l
      1.44000000	      0.30844385	     -3.46766885	     -0.05417899	     -1.38495337	      0.85163937	     -0.25504696	     14.02739731	     10.33466383	      7.62166408	    -46.33423320	     23.31221177	    -29.18052613	      0.00000000	     34.98743482	     -9.60971853	    -13.29636143	    -74.06436647	     20.13359870	    -12.53101304	      0.00000000	    -15.64341977	      9.17218252	     -4.86410890	      0.00000000	      0.00000000	      0.00000000	      0.00000000	      0.00000000	      0.00000000	      0.00000000	      0.00000000
      1.45000000	      0.28165731	     -3.30731725	     -0.59071413	     -1.37830599	      0.85150639	     -0.25429511	     13.67997349	     10.23841519	      7.92971541	    -46.75916135	     23.50312682	    -28.45174324	      0.00000000	     36.27231067	     -9.68965545	    -13.50742219	    -72.44769797	     19.96481157	    -12.15691677	      0.00000000	    -16.07499848	      8.56817671	     -4.17877499	      0.00000000	      0.00000000	      0.00000000	      0.00000000	      0.00000000	      0.00000000	      0.00000000	      0.00000000
      1.46000000	      0.26710672	     -3.37626543	     -0.69249783	     -1.37083129	      0.85159124	     -0.25396213	     12.94255709	     10.36683762	      8.31759496	    -46.45581804	     23.59984683	    -28.34909819	      0.00000000	     37.45322841	     -9.73045875	    -13.49249575	    -70.57476478	     20.30541395	    -12.28274787	      0.00000000	    -16.31406888	      8.30027557	     -4.10217500	      0.00000000	      0.00000000	      0.00000000	      0.00000000	      0.00000000	      0.00000000	      0.00000000	      0.00000000
      1.47000000	      0.40697014	     -3.38688970	     -1.06988276	     -1.36344126	      0.85172625	     -0.25313892	     12.39643388	     10.09250967	      7.55901484	    -46.57789984	     23.72502830	    -27.79062306	      0.00000000	     38.38278327	     -9.82845602	    -13.18292637	    -68.52397304	     19.70659216	    -11.55995704	      0.00000000	    -16.86543096	      7.80755936	     -3.52656272	      0.00000000	      0.00000000	      0.00000000	      0.00000000	      0.00000000	      0.00000000	      0.00000000	      0.00000000
      1.48000000	      0.36019457	     -3.52021944	     -1.25748291	     -1.35533062	      0.85153271	     -0.25288411	     11.70246836	     10.24130385	      7.90689539	    -46.36340230	     23.91151882	    -27.62006010	      0.00000000	     39.31423372	     -9.90952990	    -12.93820000	    -66.18692568	     19.66584485	    -11.34302784	      0.00000000	    -16.96830973	      7.60119903	     -3.46960395	      0.00000000	      0.00000000	      0.00000000	      0.00000000	      0.00000000	      0.00000000	      0.00000000	      0.00000000
      1.49000000	      0.48122581	     -3.19357570	     -1.93275613	     -1.34818191	      0.85113232	     -0.25228509	     11.19331636	      9.96114751	      8.18248857	    -46.67804484	     24.38912838	    -27.16624408	      0.00000000	     39.86023852	     -9.80969310	    -13.27007008	    -63.57160624	     18.90057039	    -11.19098914	      0.00000000	    -17.52952366	      6.66477132	     -2.76541247	      0.00000000	      0.00000000	      0.00000000	      0.00000000	      0.00000000	      0.00000000	      0.00000000	      0.00000000
      1.50000000	      0.58448884	     -3.13072722	     -2.14437729	     -1.34026442	      0.85082730	     -0.25182393	     10.48925579	      9.93384135	      8.32549795	    -46.68419853	     24.72976523	    -26.84213736	      0.00000000	     40.36136592	     -9.62978386	    -12.92681625	    -60.75880009	     18.16267094	    -11.23656829	      0.00000000	    -17.90708674	      6.08295895	     -2.58956344	      0.00000000	      0.00000000	      0.00000000	      0.00000000	      0.00000000	      0.00000000	      0.00000000	      0.00000000
      1.51000000	      0.50578797	     -3.32264283	     -2.35126970	     -1.33208316	      0.85024220	     -0.25110478	      9.89130086	     10.12743863	      8.31440518	    -46.51120042	     24.82722797	    -26.73272766	      0.00000000	     40.93069957	     -9.78077607	    -12.56639255	    -57.72489750	     17.72170021	    -11.18407857	      0.00000000	    -17.98489907	      5.84189618	     -2.34756156	      0.00000000	      0.00000000	      0.00000000	      0.00000000	      0.00000000	      0.00000000	      0.00000000	      0.00000000
      1.52000000	      0.21478852	     -3.19763452	     -2.45825781	     -1.32442730	      0.84986541	     -0.24930081	      9.63040778	     10.18150671	      8.52665468	    -46.48405886	     24.71072652	    -27.09559597	      0.00000000	     41.36534228	     -9.55350855	    -12.28486845	    -54.10248786	     16.49224571	    -11.31500093	      0.00000000	    -18.03079168	      4.84987630	     -2.18171466	      0.00000000	      0.00000000	      0.00000000	      0.00000000	      0.00000000	      0.00000000	      0.00000000	      0.00000000
      1.53000000	      0.05580424	     -3.48270609	     -2.48420953	     -1.31522754	      0.84888213	     -0.24967013	      9.02403057	     10.41924540	      8.48742444	    -46.26161818	     24.69545427	    -27.09371913	      0.00000000	     41.70694815	     -9.49942868	    -11.62998209	    -50.82924640	     16.21375246	    -11.30250545	      0.00000000	    -17.86910681	      4.78443450	     -2.12858004	      0.00000000	      0.00000000	      0.00000000	      0.00000000	      0.00000000	      0.00000000	      0.00000000	      0.00000000
      1.54000000	      0.88790519	     -3.42954711	     -2.66098101	     -1.30607992	      0.84865357	     -0.24994399	      7.45624743	     10.18181273	      8.42436036	    -46.25900660	     24.62061241	    -26.80571641	      0.00000000	     40.69773601	     -9.15123450	    -11.29457851	    -47.27890410	     14.64124972	    -12.84686283	      0.00000000	    -18.98681284	      4.16055208	     -2.03516537	      0.00000000	      0.00000000	      0.00000000	      0.00000000	      0.00000000	      0.00000000	      0.00000000	      0.00000000
      1.55000000	      0.98454285	     -3.40352458	     -3.22646242	     -1.29761578	      0.84754452	     -0.24897784	      6.80229904	     10.07231735	      8.58783027	    -46.45551131	     24.91064482	    -26.34723300	      0.00000000	     40.30134390	     -9.29803324	    -11.43781692	    -43.61185373	     13.58619826	    -13.40259520	      0.00000000	    -19.26679220	      3.44999728	     -1.30675644	      0.00000000	      0.00000000	      0.00000000	      0.00000000	      0.00000000	      0.00000000	      0.00000000	      0.00000000
      1.56000000	      1.08631257	     -3.81834404	     -2.62813246	     -1.28686400	      0.84642864	     -0.24944621	      5.78680764	     10.43655478	      8.13826245	    -46.15973220	     25.15177894	    -26.29348421	      0.00000000	     39.95589857	     -8.97132211	    -10.25926633	    -40.18077248	     12.79960235	    -13.58732650	      0.00000000	    -19.25458337	      3.27809661	     -2.20746166	      0.00000000	      0.00000000	      0.00000000	      0.00000000	      0.00000000	      0.00000000	      0.00000000	      0.00000000
      1.57000000	      1.45090666	     -4.00168536	     -2.69864772	     -1.27694479	      0.84534972	     -0.24958023	      4.63838178	     10.47470540	      8.06950044	    -46.11034291	     25.24041693	    -25.96343239	      0.00000000	     39.16457057	     -8.85231109	     -9.87276096	    -36.93523064	     11.65071074	    -14.74394169	      0.00000000	    -19.51936435	      3.09772150	     -1.67598720	      0.00000000	      0.00000000	      0.00000000	      0.00000000	      0.00000000	      0.00000000	      0.00000000	      0.00000000
      1.58000000	      1.97277298	     -4.06096998	     -2.88509965	     -1.26624082	      0.84455552	     -0.24975771	      3.27265485	     10.37092895	      8.21889976	    -46.11355025	     25.28373857	    -25.46299341	      0.00000000	     38.04812694	     -8.65945871	     -9.44792875	    -34.00887062	     10.26172631	    -15.75962743	      0.00000000	    -19.91758591	      2.41628770	     -1.76048348	      0.00000000	      0.00000000	      0.00000000	      0.00000000	      0.00000000	      0.00000000	      0.00000000	      0.00000000
      1.59000000	      2.54060584	     -4.41347406	     -2.20668516	     -1.25530519	      0.84294458	     -0.24980224	      1.88337024	     10.73811140	      7.75219358	    -46.08740418	     25.16986421	    -25.42281556	      0.00000000	     37.32433686	     -8.32436710	     -8.09145361	    -32.27451891	      7.73104879	    -16.93658804	      0.00000000	    -20.09262987	      2.39541890	     -2.25670031	      0.00000000	      0.00000000	      0.00000000	      0.00000000	      0.00000000	      0.00000000	      0.00000000	      0.00000000
